# xmcd
#
# Track frame offsets: 
#        150
#        18233
#        35707
#        54426
#
# Disc length: 949 seconds
#
# Revision: 0
# Processed by: cddbd v1.5.2PL0 Copyright (c) Steve Scherf et al.
# Submitted via: ExactAudioCopy v1.3
#
DISCID=2a03b304
DTITLE=何光晨 - 风正扬帆 十八起航
DYEAR=2017
DGENRE=Pop
TTITLE0=虎口脱险
TTITLE1=南山南
TTITLE2=刚刚好
TTITLE3=心墙
EXTD=
EXTT0=
EXTT1=
EXTT2=
EXTT3=
PLAYORDER=
